# File created by Blade
# Date/Time:  Fri Jan 16 19:41:12 2015
# Frame Rate: 120.000 fps
#------------------------------------------------------
:FULLY-SPECIFIED
:DEGREES
1638
root 18.778971 35.491194 -23.066895 6.601846 -0.264173 -1.301115
Spine -12.911270 -2.192618 -1.023093
Head 10.864610 -6.486655 6.828867
LeftShoulder -10.853570 -6.854633 1.937347
LeftArm -49.581192 60.876902 -96.914632
LeftForeArm 27.649565 -0.000000 56.115130
LeftHand -6.312254 -0.000000 -13.436917
LeftHandThumb1 -26.253704 0.000000 33.147579
RightShoulder -7.924583 -14.848584 9.509483
RightArm 10.484764 11.300724 58.721865
RightForeArm -30.042681 -0.000000 27.309505
RightHand -4.502622 -0.000000 3.062614
RightHandThumb1 -24.326973 -0.000000 -32.862282
LeftUpLeg 1.056157 8.676347 1.086294
LeftLeg -6.117321 -0.000000 0.000000
LeftFoot -20.312976 28.118979 -11.821791
LeftToeBase 25.288371 -0.000000 -0.000000
RightUpLeg -0.581796 -9.013314 -0.441725
RightLeg -3.388116 -0.000000 0.000000
RightFoot -19.949440 -26.900888 13.761636
RightToeBase 24.384922 -0.000000 -0.000000
1639
root 18.777012 35.490090 -23.056905 6.467237 -0.434996 -1.329363
Spine -12.730518 -2.250639 -1.147381
Head 10.745381 -6.557486 7.432685
LeftShoulder -10.894590 -6.359880 2.075526
LeftArm -52.079606 61.084095 -99.753969
LeftForeArm 27.108418 -0.000000 58.287310
LeftHand -5.650827 0.000000 -15.603984
LeftHandThumb1 -26.253704 0.000000 33.147579
RightShoulder -8.048453 -15.111330 9.848128
RightArm 10.820123 10.141324 58.763537
RightForeArm -30.033091 -0.000000 27.114676
RightHand -4.002420 -0.000000 4.682275
RightHandThumb1 -24.326973 -0.000000 -32.862282
LeftUpLeg 1.244673 8.727753 1.127487
LeftLeg -6.135154 -0.000000 0.000000
LeftFoot -20.366588 28.224205 -11.857681
LeftToeBase 25.265416 -0.000000 -0.000000
RightUpLeg -0.466530 -8.791803 -0.457014
RightLeg -3.348230 -0.000000 0.000000
RightFoot -19.979488 -26.917296 13.791998
RightToeBase 24.401064 -0.000000 -0.000000
1640
root 18.774210 35.488767 -23.052625 6.364592 -0.607035 -1.353107
Spine -12.560218 -2.288214 -1.298742
Head 10.548501 -6.629432 8.133330
LeftShoulder -10.888448 -5.676265 2.192995
LeftArm -54.188305 61.211333 -102.278994
LeftForeArm 26.140177 -0.000000 60.381794
LeftHand -5.433333 0.000000 -16.838512
LeftHandThumb1 -26.253704 0.000000 33.147579
RightShoulder -8.238027 -15.342329 10.204082
RightArm 11.260974 8.887349 58.707875
RightForeArm -29.883231 -0.000000 26.749389
RightHand -3.301276 -0.000000 6.472675
RightHandThumb1 -24.326973 -0.000000 -32.862282
LeftUpLeg 1.364686 8.846241 1.155281
LeftLeg -6.104911 -0.000000 0.000000
LeftFoot -20.434070 28.290412 -11.852770
LeftToeBase 25.311520 -0.000000 -0.000000
RightUpLeg -0.399504 -8.673012 -0.462664
RightLeg -3.307027 -0.000000 0.000000
RightFoot -19.978897 -26.860782 13.775098
RightToeBase 24.421046 -0.000000 -0.000000
1641
root 18.771475 35.487936 -23.047226 6.266791 -0.767658 -1.397531
Spine -12.404991 -2.330698 -1.436228
Head 10.400105 -6.659144 8.874625
LeftShoulder -10.900082 -5.169277 2.357658
LeftArm -56.579406 61.240156 -105.074730
LeftForeArm 25.276338 -0.000000 62.428821
LeftHand -5.616375 0.000000 -17.893198
LeftHandThumb1 -26.253704 0.000000 33.147579
RightShoulder -8.406073 -15.620726 10.546917
RightArm 11.346702 7.075357 58.581850
RightForeArm -29.661891 -0.000000 27.202232
RightHand -3.595909 -0.000000 7.231250
RightHandThumb1 -24.326973 -0.000000 -32.862282
LeftUpLeg 1.475342 8.978313 1.204103
LeftLeg -6.062680 -0.000000 0.000000
LeftFoot -20.506042 28.320931 -11.844977
LeftToeBase 25.329762 -0.000000 -0.000000
RightUpLeg -0.334835 -8.544198 -0.446468
RightLeg -3.259478 -0.000000 0.000000
RightFoot -19.986463 -26.802602 13.800470
RightToeBase 24.382091 -0.000000 -0.000000
1642
root 18.769167 35.486904 -23.040852 6.155307 -0.934753 -1.430805
Spine -12.224720 -2.361028 -1.593865
Head 10.181761 -6.700897 9.661077
LeftShoulder -10.831955 -4.679427 2.483602
LeftArm -58.865391 61.064118 -107.722349
LeftForeArm 23.923022 -0.000000 64.364042
LeftHand -5.426118 -0.000000 -19.267107
LeftHandThumb1 -26.253704 0.000000 33.147579
RightShoulder -8.540172 -15.802351 10.925791
RightArm 11.365754 5.312418 58.325879
RightForeArm -29.385303 -0.000000 27.630796
RightHand -3.772316 -0.000000 8.396779
RightHandThumb1 -24.326973 -0.000000 -32.862282
LeftUpLeg 1.626237 9.027922 1.246074
LeftLeg -6.061273 -0.000000 0.000000
LeftFoot -20.574958 28.433432 -11.858239
LeftToeBase 25.348603 -0.000000 -0.000000
RightUpLeg -0.251542 -8.433732 -0.441966
RightLeg -3.224639 -0.000000 0.000000
RightFoot -19.980046 -26.749925 13.800328
RightToeBase 24.404273 -0.000000 -0.000000
1643
root 18.767216 35.485895 -23.033356 6.039839 -1.103803 -1.457212
Spine -12.043516 -2.364333 -1.753777
Head 9.975204 -6.760087 10.409089
LeftShoulder -10.819892 -4.094313 2.588491
LeftArm -60.946773 60.992705 -110.218767
LeftForeArm 22.277325 -0.000000 66.245312
LeftHand -5.109727 -0.000000 -20.802261
LeftHandThumb1 -26.253704 0.000000 33.147579
RightShoulder -8.745605 -16.051623 11.210009
RightArm 11.720482 4.052232 58.323826
RightForeArm -29.699845 -0.000000 27.544237
RightHand -3.398423 0.000000 9.540921
RightHandThumb1 -24.326973 -0.000000 -32.862282
LeftUpLeg 1.772931 9.134840 1.271542
LeftLeg -6.061008 -0.000000 0.000000
LeftFoot -20.599129 28.582087 -11.808832
LeftToeBase 25.338314 -0.000000 -0.000000
RightUpLeg -0.165373 -8.300645 -0.444836
RightLeg -3.188324 -0.000000 0.000000
RightFoot -19.987873 -26.730645 13.777663
RightToeBase 24.439007 -0.000000 -0.000000
1644
root 18.763869 35.484557 -23.027218 5.924742 -1.263185 -1.495351
Spine -11.853311 -2.362082 -1.905621
Head 9.738447 -6.816121 11.205735
LeftShoulder -10.730804 -3.639721 2.675812
LeftArm -63.170666 60.705177 -112.792639
LeftForeArm 20.573483 0.000000 68.106577
LeftHand -5.205487 -0.000000 -21.893714
LeftHandThumb1 -26.253704 0.000000 33.147579
RightShoulder -8.938339 -16.291301 11.460888
RightArm 12.012477 2.860124 58.355070
RightForeArm -29.944858 0.000000 27.600729
RightHand -3.182849 0.000000 10.671550
RightHandThumb1 -24.326973 -0.000000 -32.862282
LeftUpLeg 1.918083 9.213475 1.329105
LeftLeg -6.028203 -0.000000 0.000000
LeftFoot -20.702831 28.574692 -11.870984
LeftToeBase 25.357920 -0.000000 -0.000000
RightUpLeg -0.076850 -8.151700 -0.436529
RightLeg -3.150704 -0.000000 0.000000
RightFoot -19.994167 -26.699128 13.787784
RightToeBase 24.405427 -0.000000 -0.000000
1645
root 18.764406 35.483955 -23.021736 5.865890 -1.465684 -1.516453
Spine -11.748362 -2.319816 -2.077573
Head 9.528846 -6.873951 11.997413
LeftShoulder -10.680837 -2.995195 2.761273
LeftArm -64.975546 60.515048 -115.031157
LeftForeArm 18.331811 -0.000000 69.922954
LeftHand -5.257005 -0.000000 -23.401962
LeftHandThumb1 -26.253704 0.000000 33.147579
RightShoulder -9.169481 -16.583526 11.733598
RightArm 12.394149 1.687389 58.316062
RightForeArm -30.126199 -0.000000 27.509922
RightHand -2.715960 -0.000000 11.770577
RightHandThumb1 -24.326973 -0.000000 -32.862282
LeftUpLeg 2.016222 9.380266 1.341478
LeftLeg -6.024237 -0.000000 0.000000
LeftFoot -20.749864 28.603832 -11.891026
LeftToeBase 25.331022 -0.000000 -0.000000
RightUpLeg -0.062117 -7.935193 -0.452245
RightLeg -3.082662 -0.000000 0.000000
RightFoot -20.013398 -26.657637 13.793261
RightToeBase 24.474454 -0.000000 -0.000000
1646
root 18.765862 35.483157 -23.019971 5.775050 -1.593034 -1.530897
Spine -11.573499 -2.339140 -2.263913
Head 9.281129 -6.907072 12.839301
LeftShoulder -10.604201 -2.413317 2.882307
LeftArm -66.919287 60.295380 -117.544320
LeftForeArm 16.306693 -0.000000 71.640562
LeftHand -5.395148 -0.000000 -24.583396
LeftHandThumb1 -26.253704 0.000000 33.147579
RightShoulder -9.321411 -16.755920 11.974245
RightArm 12.606853 0.572468 58.288668
RightForeArm -30.268574 -0.000000 27.506573
RightHand -2.315470 0.000000 12.591314
RightHandThumb1 -24.326973 -0.000000 -32.862282
LeftUpLeg 2.114070 9.462567 1.354262
LeftLeg -5.991527 -0.000000 0.000000
LeftFoot -20.802687 28.665848 -11.882715
LeftToeBase 25.369429 -0.000000 -0.000000
RightUpLeg -0.010022 -7.865010 -0.462847
RightLeg -3.029206 -0.000000 0.000000
RightFoot -20.009729 -26.601359 13.772616
RightToeBase 24.475630 -0.000000 -0.000000
1647
root 18.764256 35.483061 -23.015516 5.662128 -1.696567 -1.563080
Spine -11.382049 -2.355466 -2.427785
Head 9.053157 -6.935987 13.666924
LeftShoulder -10.501726 -1.887460 2.967476
LeftArm -69.063799 60.011791 -120.203442
LeftForeArm 14.514916 -0.000000 73.318559
LeftHand -5.366445 -0.000000 -25.312550
LeftHandThumb1 -26.253704 0.000000 33.147579
RightShoulder -9.507437 -16.999367 12.219714
RightArm 12.886948 -0.440459 58.279586
RightForeArm -30.346030 -0.000000 27.502531
RightHand -1.944977 -0.000000 13.283852
RightHandThumb1 -24.326973 -0.000000 -32.862282
LeftUpLeg 2.237463 9.528617 1.400430
LeftLeg -5.953931 -0.000000 0.000000
LeftFoot -20.864239 28.679823 -11.888292
LeftToeBase 25.345614 -0.000000 -0.000000
RightUpLeg 0.080162 -7.794624 -0.453920
RightLeg -2.991988 -0.000000 0.000000
RightFoot -20.035880 -26.553643 13.811276
RightToeBase 24.467175 -0.000000 -0.000000
